<svg width="196" height="40" viewBox="0 0 196 40" fill="none" xmlns="http://www.w3.org/2000/svg">
<path fill-rule="evenodd" clip-rule="evenodd" d="M67.9551 14.0224C68.9888 14.4269 69.7079 14.9662 70.2922 15.6853C70.8315 16.4044 71.1461 17.3033 71.1461 18.337C71.1461 19.7752 70.5169 21.0336 69.2585 21.8426C67.9551 22.6965 66.2023 23.1011 63.8203 23.1011H54.0225V5.7977H63.3259C65.5731 5.7977 67.3109 6.20218 68.5394 7.01116C69.7079 7.8651 70.2922 8.9887 70.2922 10.337C70.2922 11.146 70.0974 11.8651 69.7079 12.4943C69.2585 13.0786 68.6742 13.6179 67.9551 14.0224ZM59.8203 9.79771V12.3595H62.472C63.8203 12.3595 64.4495 11.955 64.4495 11.146C64.4495 10.337 63.8203 9.79771 62.472 9.79771H59.8203ZM63.3259 18.9662C64.5843 18.9662 65.3034 18.5617 65.3034 17.6179C65.3034 16.719 64.5843 16.3146 63.3259 16.3146H59.8203V18.9662H63.3259ZM89.7978 18.6516V23.1011H75.3708V5.7977H89.4831V10.2022H81.1686V12.1797H88.4494V16.4044H81.1686V18.6516H89.7978ZM98.0225 10.337H92.9888V5.7977H108.944V10.337H103.775V23.1011H98.0225V10.337ZM123.551 20.0898H116.989L115.82 23.1011H109.843L117.483 5.7977H123.146L130.786 23.1011H124.674L123.551 20.0898ZM121.933 15.8651L120.27 11.5505L118.607 15.8651H121.933ZM147.82 14.0224C148.809 14.4269 149.528 14.9213 150.157 15.6404C150.697 16.3595 151.011 17.3033 151.011 18.337C151.011 19.7752 150.382 20.9887 149.124 21.8426C147.82 22.6516 146.067 23.0561 143.685 23.0561H133.888V5.75277H143.146C145.423 5.75277 147.176 6.17221 148.404 7.01116C149.528 7.82015 150.157 8.94377 150.157 10.2921C150.157 11.131 149.947 11.8501 149.528 12.4493C149.124 13.0786 148.539 13.6179 147.82 14.0224ZM139.685 9.79771V12.3595H142.337C143.685 12.3595 144.315 11.955 144.315 11.146C144.315 10.2921 143.685 9.79771 142.337 9.79771H139.685ZM143.191 18.9662C144.539 18.9662 145.168 18.5617 145.168 17.6179C145.168 16.6741 144.539 16.2696 143.191 16.2696H139.685V18.9662H143.191ZM164.315 23.4606C162.457 23.4606 160.809 23.0561 159.371 22.2471C157.798 21.528 156.674 20.4044 155.865 19.0561C155.026 17.7078 154.607 16.1647 154.607 14.4269C154.607 12.6591 155.026 11.1161 155.865 9.79771C156.674 8.35951 157.798 7.32579 159.371 6.47186C160.809 5.75276 162.472 5.34827 164.315 5.34827C166.157 5.34827 167.91 5.75276 169.348 6.47186C170.786 7.32579 172.045 8.35951 172.854 9.79771C173.693 11.1161 174.112 12.6591 174.112 14.4269C174.112 16.1647 173.693 17.7078 172.854 19.0561C172.045 20.4044 170.786 21.528 169.348 22.2471C167.91 23.0561 166.157 23.4606 164.315 23.4606ZM164.315 18.7415C165.034 18.7415 165.753 18.5617 166.247 18.2471C166.876 17.7977 167.416 17.3033 167.685 16.6741C168 16.0898 168.225 15.2359 168.225 14.4269C168.225 13.4831 168 12.764 167.685 12.1348C167.416 11.4157 166.876 10.9213 166.247 10.6067C165.753 10.2921 165.034 10.1123 164.315 10.1123C163.595 10.1123 162.966 10.2921 162.337 10.6067C161.843 10.9213 161.303 11.4157 160.989 12.1348C160.584 12.764 160.494 13.4831 160.494 14.4269C160.494 15.2359 160.584 16.0898 160.989 16.6741C161.303 17.3033 161.843 17.7977 162.337 18.2471C162.966 18.5617 163.595 18.7415 164.315 18.7415ZM188.809 23.0561L185.843 18.4269L182.831 23.0561H176.27L182.427 14.337L176.449 5.75277H182.966L185.932 10.1123L188.809 5.75277H195.101L189.034 14.1123L195.416 23.0561H188.809Z" fill="white"/>
<path d="M40.5394 27.9101V37.9326C40.5394 39.0562 39.6405 40 38.472 40H17.1686V27.9101H25.708H26.1124H28.4945H40.5394Z" fill="white"/>
<path d="M17.1686 0H38.472C39.6405 0 40.5394 0.943808 40.5394 2.0674V24.1348H28.4945V12.1797H17.1686V0Z" fill="white"/>
<path d="M2.65183 0H12.7192V12.1797V27.9101V39.9999H2.65183C1.52823 39.9999 0.584412 39.0561 0.584412 37.9325V2.0674C0.584412 0.943808 1.52823 0 2.65183 0Z" fill="white"/>
<path fill-rule="evenodd" clip-rule="evenodd" d="M54.6967 33.3932V33.3483C54.6967 31.7303 56.0001 30.4269 57.7529 30.4269C59.5057 30.4269 60.8091 31.7303 60.8091 33.3483C60.8091 35.0112 59.5057 36.3146 57.7529 36.3146C56.0001 36.3146 54.6967 35.0112 54.6967 33.3932ZM59.1911 33.3932V33.3483C59.1911 32.5393 58.6068 31.8202 57.7529 31.8202C56.854 31.8202 56.3147 32.5393 56.3147 33.3483C56.3147 34.2022 56.899 34.8764 57.7529 34.8764C58.6068 34.8764 59.1911 34.2022 59.1911 33.3932Z" fill="white"/>
<path fill-rule="evenodd" clip-rule="evenodd" d="M65.9776 30.5168H68.4046C69.7978 30.5168 70.7416 31.2808 70.7416 32.5393C70.7416 33.8876 69.7079 34.5617 68.3147 34.5617H67.5506V36.1797H65.9776V30.5168ZM68.2697 33.3482C68.8091 33.3482 69.1686 33.0336 69.1686 32.6291V32.5842C69.1686 32.0898 68.8091 31.8651 68.2697 31.8651H67.5506V33.3482H68.2697Z" fill="white"/>
<path d="M75.7754 30.5168H80.3147V31.8651H77.3035V32.719H80.045V33.9774H77.3035V34.8763H80.3597V36.1797H75.7754V30.5168Z" fill="white"/>
<path d="M85.5281 30.5168H86.9663L89.3034 33.528V30.5168H90.8764V36.1797H89.4832L87.0562 33.0786V36.1797H85.5281V30.5168Z" fill="white"/>
<path d="M104.18 31.91H102.517V30.5168H107.461V31.91H105.753V36.1797H104.18V31.91Z" fill="white"/>
<path d="M112.494 30.5168H114.067V32.6741H116.09V30.5168H117.663V36.1797H116.09V34.0674H114.067V36.1797H112.494V30.5168Z" fill="white"/>
<path d="M123.011 30.5168H127.551V31.8651H124.539V32.719H127.281V33.9774H124.539V34.8763H127.596V36.1797H123.011V30.5168Z" fill="white"/>
<path d="M139.371 30.5168H143.91V31.91H140.944V32.8538H143.596V34.1572H140.944V36.1797H139.371V30.5168Z" fill="white"/>
<path d="M148.899 33.7078V30.5168H150.472V33.6628C150.472 34.5168 150.876 34.8763 151.506 34.8763C152.18 34.8763 152.584 34.5168 152.584 33.7078V30.5168H154.157V33.6628C154.157 35.5055 153.124 36.3145 151.506 36.3145C149.888 36.3145 148.899 35.5055 148.899 33.7078Z" fill="white"/>
<path d="M160.809 31.91H159.146V30.5168H164.09V31.91H162.382V36.1797H160.809V31.91Z" fill="white"/>
<path d="M169.079 33.7078V30.5168H170.652V33.6628C170.652 34.5168 171.056 34.8763 171.685 34.8763C172.36 34.8763 172.764 34.5168 172.764 33.7078V30.5168H174.337V33.6628C174.337 35.5055 173.303 36.3145 171.685 36.3145C170.067 36.3145 169.079 35.5055 169.079 33.7078Z" fill="white"/>
<path fill-rule="evenodd" clip-rule="evenodd" d="M179.64 30.5168H182.292C183.146 30.5168 183.775 30.7415 184.135 31.146C184.494 31.4606 184.629 31.91 184.629 32.4493V32.4943C184.629 33.3483 184.18 33.9325 183.461 34.2471L184.854 36.1797H183.011L181.888 34.4718H181.169V36.1797H179.64V30.5168ZM182.247 33.2583C182.742 33.2583 183.056 32.9887 183.056 32.5842C183.056 32.1347 182.742 31.91 182.247 31.91H181.169V33.2583H182.247Z" fill="white"/>
<path d="M189.798 30.5168H194.337V31.8651H191.326V32.719H194.067V33.9774H191.326V34.8763H194.382V36.1797H189.798V30.5168Z" fill="white"/>
</svg>
