<svg width="14" height="13" viewBox="0 0 14 13" fill="none" xmlns="http://www.w3.org/2000/svg">
<path d="M13.7688 7.04371C13.9156 6.90308 14 6.70621 14 6.49996C14 6.29371 13.9156 6.09996 13.7688 5.95621L8.26875 0.706206C7.96875 0.418706 7.49375 0.431206 7.20937 0.731206C6.925 1.03121 6.93437 1.50621 7.23438 1.79058L11.3781 5.74996H0.75C0.334375 5.74996 0 6.08433 0 6.49996C0 6.91558 0.334375 7.24996 0.75 7.24996H11.3781L7.23125 11.2062C6.93125 11.4937 6.92188 11.9656 7.20625 12.2656C7.49063 12.5656 7.96562 12.575 8.26562 12.2906L13.7656 7.04058L13.7688 7.04371Z" fill="#007DC6"/>
</svg>
