<svg width="32" height="33" viewBox="0 0 32 33" fill="none" xmlns="http://www.w3.org/2000/svg">
<rect y="0.333496" width="32" height="32" rx="16" fill="#333847" fill-opacity="0.35"/>
<path d="M17.3335 10.3335C17.3335 9.96529 17.632 9.66681 18.0002 9.66681H22.0002C22.3684 9.66681 22.6668 9.96529 22.6668 10.3335V14.3335C22.6668 14.7017 22.3684 15.0001 22.0002 15.0001C21.632 15.0001 21.3335 14.7017 21.3335 14.3335V11.943L17.8049 15.4715C17.5446 15.7319 17.1224 15.7319 16.8621 15.4715C16.6017 15.2112 16.6017 14.7891 16.8621 14.5287L20.3907 11.0001H18.0002C17.632 11.0001 17.3335 10.7017 17.3335 10.3335Z" fill="white"/>
<path d="M11.6096 21.6668L15.1382 18.1382C15.3986 17.8779 15.3986 17.4558 15.1382 17.1954C14.8779 16.9351 14.4558 16.9351 14.1954 17.1954L10.6668 20.724L10.6668 18.3335C10.6668 17.9653 10.3684 17.6668 10.0002 17.6668C9.63197 17.6668 9.3335 17.9653 9.3335 18.3335V22.3335C9.3335 22.7017 9.63197 23.0001 10.0002 23.0001H14.0002C14.3684 23.0001 14.6668 22.7017 14.6668 22.3335C14.6668 21.9653 14.3684 21.6668 14.0002 21.6668H11.6096Z" fill="white"/>
</svg>
