<svg width="117" height="24" viewBox="0 0 117 24" fill="none" xmlns="http://www.w3.org/2000/svg">
<path fill-rule="evenodd" clip-rule="evenodd" d="M40.4224 8.41345C41.0426 8.65615 41.4741 8.97976 41.8247 9.41122C42.1482 9.84268 42.337 10.382 42.337 11.0022C42.337 11.8652 41.9595 12.6202 41.2044 13.1056C40.4224 13.6179 39.3707 13.8607 37.9415 13.8607H32.0629V3.47865H37.6449C38.9932 3.47865 40.0359 3.72133 40.773 4.20672C41.4741 4.71908 41.8247 5.39324 41.8247 6.20223C41.8247 6.68763 41.7078 7.1191 41.4741 7.49663C41.2044 7.84719 40.8539 8.17076 40.4224 8.41345ZM35.5415 5.87865V7.41571H37.1325C37.9415 7.41571 38.319 7.17303 38.319 6.68764C38.319 6.20225 37.9415 5.87865 37.1325 5.87865H35.5415ZM37.6449 11.3797C38.3999 11.3797 38.8314 11.137 38.8314 10.5708C38.8314 10.0314 38.3999 9.78876 37.6449 9.78876H35.5415V11.3797H37.6449ZM53.528 11.191V13.8607H44.8718V3.47865H53.3392V6.12132H48.3505V7.30784H52.719V9.84268H48.3505V11.191H53.528ZM58.4628 6.20223H55.4426V3.47865H65.0156V6.20223H61.9145V13.8607H58.4628V6.20223ZM73.7797 12.0539H69.8426L69.1415 13.8607H65.555L70.1392 3.47865H73.537L78.1212 13.8607H74.4538L73.7797 12.0539ZM72.8089 9.5191L71.8111 6.93031L70.8134 9.5191H72.8089ZM88.3414 8.41345C88.9347 8.65615 89.3662 8.9528 89.7437 9.38426C90.0673 9.81572 90.2561 10.382 90.2561 11.0022C90.2561 11.8652 89.8785 12.5932 89.1235 13.1056C88.3414 13.591 87.2898 13.8337 85.8606 13.8337H79.9819V3.45169H85.537C86.9032 3.45169 87.9549 3.70335 88.692 4.20672C89.3662 4.69212 89.7437 5.36629 89.7437 6.17527C89.7437 6.67864 89.6179 7.11008 89.3662 7.46963C89.1235 7.84716 88.7729 8.17076 88.3414 8.41345ZM83.4606 5.87865V7.41571H85.0516C85.8606 7.41571 86.2381 7.17303 86.2381 6.68764C86.2381 6.17528 85.8606 5.87865 85.0516 5.87865H83.4606ZM85.5639 11.3797C86.3729 11.3797 86.7504 11.137 86.7504 10.5708C86.7504 10.0045 86.3729 9.76177 85.5639 9.76177H83.4606V11.3797H85.5639ZM98.2381 14.0764C97.1235 14.0764 96.1347 13.8337 95.2718 13.3483C94.3279 12.9168 93.6538 12.2427 93.1684 11.4337C92.665 10.6247 92.4134 9.69885 92.4134 8.65616C92.4134 7.59548 92.665 6.66966 93.1684 5.87865C93.6538 5.01573 94.3279 4.3955 95.2718 3.88314C96.1347 3.45168 97.1324 3.20898 98.2381 3.20898C99.3437 3.20898 100.395 3.45168 101.258 3.88314C102.121 4.3955 102.876 5.01573 103.362 5.87865C103.865 6.66966 104.117 7.59548 104.117 8.65616C104.117 9.69885 103.865 10.6247 103.362 11.4337C102.876 12.2427 102.121 12.9168 101.258 13.3483C100.395 13.8337 99.3437 14.0764 98.2381 14.0764ZM98.2381 11.2449C98.6695 11.2449 99.101 11.1371 99.3976 10.9483C99.7751 10.6786 100.099 10.382 100.261 10.0045C100.449 9.65391 100.584 9.14155 100.584 8.65616C100.584 8.08986 100.449 7.65841 100.261 7.28088C100.099 6.84942 99.7751 6.55279 99.3976 6.36402C99.101 6.17526 98.6695 6.0674 98.2381 6.0674C97.8066 6.0674 97.4291 6.17526 97.0516 6.36402C96.7549 6.55279 96.4313 6.84942 96.2426 7.28088C95.9999 7.65841 95.9459 8.08986 95.9459 8.65616C95.9459 9.14155 95.9999 9.65391 96.2426 10.0045C96.4313 10.382 96.7549 10.6786 97.0516 10.9483C97.4291 11.1371 97.8066 11.2449 98.2381 11.2449ZM112.935 13.8337L111.155 11.0562L109.348 13.8337H105.411L109.105 8.60224L105.519 3.45169H109.429L111.209 6.0674L112.935 3.45169H116.71L113.069 8.4674L116.899 13.8337H112.935Z" fill="white"/>
<path d="M23.973 16.7461V22.7596C23.973 23.4337 23.4337 24 22.7325 24H9.95053V16.7461H15.0741H15.3168H16.746H23.973Z" fill="white"/>
<path d="M9.95053 0H22.7325C23.4337 0 23.973 0.566285 23.973 1.24044V14.4809H16.746V7.30785H9.95053V0Z" fill="white"/>
<path d="M1.24045 0H7.28089V7.30785V16.746V24H1.24045C0.566293 24 0 23.4337 0 22.7595V1.24044C0 0.566285 0.566293 0 1.24045 0Z" fill="white"/>
<path fill-rule="evenodd" clip-rule="evenodd" d="M32.4674 20.0359V20.0089C32.4674 19.0381 33.2494 18.2561 34.3011 18.2561C35.3528 18.2561 36.1348 19.0381 36.1348 20.0089C36.1348 21.0067 35.3528 21.7887 34.3011 21.7887C33.2494 21.7887 32.4674 21.0067 32.4674 20.0359ZM35.164 20.0359V20.0089C35.164 19.5235 34.8134 19.0921 34.3011 19.0921C33.7618 19.0921 33.4382 19.5235 33.4382 20.0089C33.4382 20.5213 33.7887 20.9258 34.3011 20.9258C34.8134 20.9258 35.164 20.5213 35.164 20.0359Z" fill="white"/>
<path fill-rule="evenodd" clip-rule="evenodd" d="M39.2359 18.3101H40.6921C41.5281 18.3101 42.0944 18.7685 42.0944 19.5235C42.0944 20.3325 41.4741 20.737 40.6382 20.737H40.1798V21.7078H39.2359V18.3101ZM40.6112 20.0089C40.9348 20.0089 41.1505 19.8202 41.1505 19.5775V19.5505C41.1505 19.2539 40.9348 19.119 40.6112 19.119H40.1798V20.0089H40.6112Z" fill="white"/>
<path d="M45.1146 18.3101H47.8382V19.119H46.0315V19.6314H47.6764V20.3864H46.0315V20.9258H47.8652V21.7078H45.1146V18.3101Z" fill="white"/>
<path d="M50.9663 18.3101H51.8292L53.2314 20.1168V18.3101H54.1752V21.7078H53.3393L51.8831 19.8471V21.7078H50.9663V18.3101Z" fill="white"/>
<path d="M62.1573 19.146H61.1595V18.3101H64.1258V19.146H63.1011V21.7078H62.1573V19.146Z" fill="white"/>
<path d="M67.146 18.3101H68.0899V19.6044H69.3033V18.3101H70.2472V21.7078H69.3033V20.4404H68.0899V21.7078H67.146V18.3101Z" fill="white"/>
<path d="M73.4561 18.3101H76.1797V19.119H74.373V19.6314H76.0179V20.3864H74.373V20.9258H76.2067V21.7078H73.4561V18.3101Z" fill="white"/>
<path d="M83.2719 18.3101H85.9955V19.146H84.2157V19.7123H85.8067V20.4943H84.2157V21.7078H83.2719V18.3101Z" fill="white"/>
<path d="M88.9887 20.2247V18.3101H89.9326V20.1977C89.9326 20.7101 90.1753 20.9258 90.5528 20.9258C90.9573 20.9258 91.2 20.71 91.2 20.2247V18.3101H92.1438V20.1977C92.1438 21.3033 91.5236 21.7887 90.5528 21.7887C89.582 21.7887 88.9887 21.3033 88.9887 20.2247Z" fill="white"/>
<path d="M96.1348 19.146H95.137V18.3101H98.1033V19.146H97.0786V21.7078H96.1348V19.146Z" fill="white"/>
<path d="M101.097 20.2247V18.3101H102.04V20.1977C102.04 20.7101 102.283 20.9258 102.661 20.9258C103.065 20.9258 103.308 20.71 103.308 20.2247V18.3101H104.252V20.1977C104.252 21.3033 103.631 21.7887 102.661 21.7887C101.69 21.7887 101.097 21.3033 101.097 20.2247Z" fill="white"/>
<path fill-rule="evenodd" clip-rule="evenodd" d="M107.434 18.3101H109.025C109.537 18.3101 109.915 18.4449 110.13 18.6876C110.346 18.8764 110.427 19.146 110.427 19.4696V19.4966C110.427 20.0089 110.157 20.3595 109.726 20.5482L110.562 21.7078H109.456L108.782 20.6831H108.35V21.7078H107.434V18.3101ZM108.998 19.955C109.294 19.955 109.483 19.7932 109.483 19.5505C109.483 19.2808 109.294 19.146 108.998 19.146H108.35V19.955H108.998Z" fill="white"/>
<path d="M113.528 18.3101H116.252V19.119H114.445V19.6314H116.09V20.3864H114.445V20.9258H116.279V21.7078H113.528V18.3101Z" fill="white"/>
</svg>
