<svg width="123" height="133" viewBox="0 0 123 133" fill="none" xmlns="http://www.w3.org/2000/svg">
<g clip-path="url(#clip0_1_1893)">
<path opacity="0.4" d="M8.49999 43.75V61.25C8.49999 66.0898 12.4101 70 17.25 70H21.625V35H17.25C12.4101 35 8.49999 38.9102 8.49999 43.75ZM39.125 126.875V140H47.875V126.875C47.875 124.469 45.9062 122.5 43.5 122.5C41.0937 122.5 39.125 124.469 39.125 126.875ZM56.625 4.375V17.5H65.375V4.375C65.375 1.96875 63.4062 0 61 0C58.5937 0 56.625 1.96875 56.625 4.375ZM56.625 126.875V140H65.375V126.875C65.375 124.469 63.4062 122.5 61 122.5C58.5937 122.5 56.625 124.469 56.625 126.875ZM74.125 126.875V140H82.875V126.875C82.875 124.469 80.9062 122.5 78.5 122.5C76.0937 122.5 74.125 124.469 74.125 126.875ZM100.375 35V70H104.75C109.59 70 113.5 66.0898 113.5 61.25V43.75C113.5 38.9102 109.59 35 104.75 35H100.375Z" fill="#AFB7CA"/>
<path d="M21.625 35C21.625 25.3477 29.4726 17.5 39.125 17.5H82.875C92.5273 17.5 100.375 25.3477 100.375 35V70C100.375 79.6523 92.5273 87.5 82.875 87.5H39.125C29.4726 87.5 21.625 79.6523 21.625 70V35ZM52.25 43.75C52.25 41.4294 51.3281 39.2038 49.6872 37.5628C48.0462 35.9219 45.8206 35 43.5 35C41.1793 35 38.9538 35.9219 37.3128 37.5628C35.6719 39.2038 34.75 41.4294 34.75 43.75C34.75 46.0706 35.6719 48.2962 37.3128 49.9372C38.9538 51.5781 41.1793 52.5 43.5 52.5C45.8206 52.5 48.0462 51.5781 49.6872 49.9372C51.3281 48.2962 52.25 46.0706 52.25 43.75ZM78.5 52.5C80.8206 52.5 83.0462 51.5781 84.6872 49.9372C86.3281 48.2962 87.25 46.0706 87.25 43.75C87.25 41.4294 86.3281 39.2038 84.6872 37.5628C83.0462 35.9219 80.8206 35 78.5 35C76.1793 35 73.9538 35.9219 72.3128 37.5628C70.6719 39.2038 69.75 41.4294 69.75 43.75C69.75 46.0706 70.6719 48.2962 72.3128 49.9372C73.9538 51.5781 76.1793 52.5 78.5 52.5ZM39.125 70C39.125 71.1603 39.5859 72.2731 40.4064 73.0936C41.2269 73.9141 42.3397 74.375 43.5 74.375C44.6603 74.375 45.7731 73.9141 46.5936 73.0936C47.4141 72.2731 47.875 71.1603 47.875 70C47.875 68.8397 47.4141 67.7269 46.5936 66.9064C45.7731 66.0859 44.6603 65.625 43.5 65.625C42.3397 65.625 41.2269 66.0859 40.4064 66.9064C39.5859 67.7269 39.125 68.8397 39.125 70ZM61 65.625C59.8397 65.625 58.7269 66.0859 57.9064 66.9064C57.0859 67.7269 56.625 68.8397 56.625 70C56.625 71.1603 57.0859 72.2731 57.9064 73.0936C58.7269 73.9141 59.8397 74.375 61 74.375C62.1603 74.375 63.2731 73.9141 64.0936 73.0936C64.9141 72.2731 65.375 71.1603 65.375 70C65.375 68.8397 64.9141 67.7269 64.0936 66.9064C63.2731 66.0859 62.1603 65.625 61 65.625ZM74.125 70C74.125 71.1603 74.5859 72.2731 75.4064 73.0936C76.2269 73.9141 77.3397 74.375 78.5 74.375C79.6603 74.375 80.7731 73.9141 81.5936 73.0936C82.4141 72.2731 82.875 71.1603 82.875 70C82.875 68.8397 82.4141 67.7269 81.5936 66.9064C80.7731 66.0859 79.6603 65.625 78.5 65.625C77.3397 65.625 76.2269 66.0859 75.4064 66.9064C74.5859 67.7269 74.125 68.8397 74.125 70ZM-0.250008 122.5C-0.250008 108.008 11.5078 96.25 26 96.25H96C110.492 96.25 122.25 108.008 122.25 122.5V131.25C122.25 136.09 118.34 140 113.5 140H96V122.5C96 117.66 92.0898 113.75 87.25 113.75H34.75C29.9101 113.75 26 117.66 26 122.5V140H8.49999C3.66015 140 -0.250008 136.09 -0.250008 131.25V122.5Z" fill="#AFB7CA"/>
</g>
<defs>
<clipPath id="clip0_1_1893">
<rect width="122.5" height="140" fill="white"/>
</clipPath>
</defs>
</svg>
